<svg width="29" height="26" viewBox="0 0 29 26" fill="none" xmlns="http://www.w3.org/2000/svg">
<path d="M20.7626 14.5039C20.7626 17.8249 18.1201 20.5166 14.86 20.5166C11.6 20.5166 8.95752 17.8248 8.95752 14.5039C8.95752 11.183 11.6 8.49121 14.86 8.49121C18.1201 8.49121 20.7626 11.183 20.7626 14.5039Z" fill="black"/>
<path d="M26.0748 25.2411C27.6771 25.2411 28.9841 23.9097 28.9841 22.2775V7.15947C28.9841 5.52733 27.6771 4.19591 26.0748 4.19591L20.8887 4.19621L20.2984 2.2204C19.919 1.1038 18.9073 0.330566 17.7689 0.330566H11.9504C10.812 0.330566 9.80024 1.1035 9.46294 2.2204L8.83063 4.19621H3.64448C2.04225 4.19621 0.735229 5.52755 0.735229 7.15977V22.2349C0.735229 23.867 2.04218 25.1984 3.64448 25.1984H26.0747L26.0748 25.2411ZM24.9785 6.773C25.6952 6.773 26.2434 7.33143 26.2434 8.06155C26.2434 8.79167 25.6952 9.3501 24.9785 9.3501C24.2617 9.3501 23.7135 8.79167 23.7135 8.06155C23.7138 7.33146 24.2617 6.773 24.9785 6.773ZM14.8596 6.773C19.0337 6.773 22.4487 10.2518 22.4487 14.5038C22.4487 18.7559 19.0337 22.2346 14.8596 22.2346C10.6855 22.2346 7.27043 18.7559 7.27043 14.5038C7.27043 10.2518 10.6855 6.773 14.8596 6.773Z" fill="black"/>
</svg>
