<svg width="47" height="30" viewBox="0 0 47 30" fill="none" xmlns="http://www.w3.org/2000/svg">
<path d="M30.0005 6.66663C30.0005 10.3481 27.0161 13.3333 23.3339 13.3333C19.6516 13.3333 16.6672 10.3481 16.6672 6.66663C16.6672 2.98435 19.6516 0 23.3339 0C27.0161 0 30.0005 2.98435 30.0005 6.66663Z" fill="#6B5ECD"/>
<path d="M33.3337 7.49996C33.3337 4.2784 35.9453 1.66687 39.1672 1.66687C42.3888 1.66687 45.0003 4.2784 45.0003 7.49996C45.0003 10.7219 42.3888 13.3334 39.1672 13.3334C35.9453 13.3334 33.3337 10.7219 33.3337 7.49996Z" fill="#6B5ECD"/>
<path d="M46.6675 22.8156V27.5C46.6675 27.96 46.2943 28.3332 45.8343 28.3332H35.8342V24.9996C35.8342 22.2703 34.9448 19.7502 33.4548 17.6924C35.0143 15.8412 37.42 14.7266 40.1033 15.0573C43.9162 15.5278 46.6676 18.9744 46.6676 22.8156L46.6675 22.8156Z" fill="#6B5ECD"/>
<path d="M13.3338 7.49996C13.3338 10.7219 10.7223 13.3334 7.50032 13.3334C4.27877 13.3334 1.66724 10.7219 1.66724 7.49996C1.66724 4.2784 4.27877 1.66687 7.50032 1.66687C10.7223 1.66687 13.3338 4.2784 13.3338 7.49996Z" fill="#6B5ECD"/>
<path d="M13.2127 17.6925C11.7226 19.7503 10.8333 22.2704 10.8333 24.9997V28.3333H0.833182C0.373188 28.3329 0 27.9597 0 27.4997V22.8152C0 18.974 2.75181 15.5274 6.56395 15.0573C9.2472 14.7268 11.6534 15.8413 13.2128 17.6925L13.2127 17.6925Z" fill="#6B5ECD"/>
<path d="M33.334 25.0001V29.1669C33.334 29.6268 32.9608 30 32.5008 30H14.1673C13.7073 30 13.3341 29.6268 13.3341 29.1669L13.3337 25.0001C13.3337 19.4775 17.8109 15.0001 23.3338 15.0001C28.8565 15.0001 33.3339 19.4772 33.3339 25.0001H33.334Z" fill="#6B5ECD"/>
</svg>
