<svg width="51" height="51" viewBox="0 0 51 51" fill="none" xmlns="http://www.w3.org/2000/svg">
<path d="M25.5601 0.5625C11.7499 0.5625 0.560059 11.7523 0.560059 25.5625C0.560059 39.3727 11.7499 50.5625 25.5601 50.5625C39.3702 50.5625 50.5601 39.3727 50.5601 25.5625C50.5601 11.7523 39.3702 0.5625 25.5601 0.5625V0.5625ZM11.5698 26.9723C9.15984 20.7724 12.2098 13.7921 18.4197 11.3821C24.6297 8.97202 31.6 12.0321 34.0191 18.242C35.0591 20.9219 35.0691 23.7619 34.2491 26.3019L33.1391 28.7819C31.8191 31.0018 29.7692 32.8219 27.1692 33.8318C20.9592 36.2417 13.9789 33.1718 11.5698 26.9719L11.5698 26.9723ZM39.5896 39.7219C38.4996 40.8319 36.7196 40.8519 35.6097 39.7519L31.1998 35.3819C30.6898 34.922 30.6498 34.142 31.1098 33.6319L31.1598 33.5819L30.2898 32.7519C31.1698 32.0519 31.9598 31.2619 32.6497 30.392L33.4297 31.132C33.8897 30.812 34.5297 30.842 34.9697 31.242L39.5497 35.7819C40.6497 36.8619 40.6597 38.6219 39.5897 39.7219L39.5896 39.7219Z" fill="#6B5ECD"/>
</svg>
