<svg width="15" height="15" viewBox="0 0 15 15" fill="none" xmlns="http://www.w3.org/2000/svg">
<path d="M6.2209 8.3827C8.53213 8.3827 10.4121 6.50246 10.4121 4.19147C10.4121 1.88024 8.53189 2.15601e-08 6.2209 2.15601e-08C3.9099 -0.000232494 2.02966 1.88024 2.02966 4.19147C2.02966 6.5027 3.90967 8.3827 6.2209 8.3827ZM6.2209 0.666303C8.16458 0.666303 9.74565 2.24755 9.74565 4.19123C9.74565 6.13491 8.16464 7.71598 6.2209 7.71598C4.27716 7.71598 2.69614 6.13497 2.69614 4.19147C2.69614 2.24779 4.27716 0.666303 6.2209 0.666303Z" fill="#888888"/>
<path d="M6.22085 8.44519C2.79072 8.44519 0 11.236 0 14.6666V15H12.4423V14.6666C12.4423 11.2363 9.65145 8.44519 6.22085 8.44519ZM0.676182 14.3332C0.849137 11.4248 3.26962 9.11197 6.22085 9.11197C9.17208 9.11197 11.5932 11.4248 11.7662 14.3332H0.676182Z" fill="#888888"/>
<path d="M13.0642 7.28585V5.57623H11.9312V7.28585H10.2881V8.38915H11.9312V10.112H13.0642V8.38915H14.7073V7.28585H13.0642Z" fill="#888888"/>
</svg>
