<svg width="30" height="30" viewBox="0 0 30 30" fill="none" xmlns="http://www.w3.org/2000/svg">
<path d="M30 15C30 6.72632 23.2737 0 15 0C6.72632 0 0 6.72632 0 15C0 23.2737 6.72632 30 15 30C23.2737 30 30 23.2737 30 15ZM23.0526 15.4421C23.0526 16.3578 22.2947 17.1158 21.3789 17.1158H17.1157V21.379C17.1157 22.2947 16.3577 23.0527 15.442 23.0527H14.5578C13.6421 23.0527 12.8841 22.2948 12.8841 21.379V17.1158H8.62083C7.70515 17.1158 6.94714 16.3578 6.94714 15.4421V14.5579C6.94714 13.6422 7.70509 12.8842 8.62083 12.8842H12.8841V8.62093C12.8841 7.70525 13.642 6.94724 14.5578 6.94724H15.442C16.3577 6.94724 17.1157 7.7052 17.1157 8.62093V12.8842H21.3789C22.2946 12.8842 23.0526 13.6422 23.0526 14.5579V15.4421Z" fill="#6B5ECD"/>
</svg>
