<svg width="25" height="25" viewBox="0 0 25 25" fill="none" xmlns="http://www.w3.org/2000/svg">
<mask id="path-1-inside-1_191_1683" fill="white">
<path d="M12.5003 6.65576e-05C12.347 6.65576e-05 12.2778 0.0117648 12.2941 0.0117648H12.2938C12.0728 0.0137993 11.8584 0.0872978 11.6827 0.221573C11.5072 0.355849 11.3798 0.543528 11.3201 0.756384C11.1469 1.38885 10.9208 2.01164 10.667 2.44067C10.4132 2.86943 10.1719 3.05025 10.0483 3.0823C9.92595 3.11408 9.62943 3.07111 9.20044 2.81883C8.77167 2.56655 8.27324 2.14234 7.81419 1.67314V1.67289C7.66033 1.51293 7.45867 1.40739 7.23946 1.37229C7.02049 1.33694 6.79568 1.37433 6.59961 1.47834C5.45269 2.09326 4.40667 2.88392 3.50617 3.81568V3.81542C3.35358 3.97462 3.25644 4.17908 3.22973 4.39805C3.20277 4.61675 3.24753 4.83851 3.35714 5.03C3.68265 5.59915 3.954 6.19984 4.07887 6.67998C4.20399 7.16012 4.15364 7.45458 4.09006 7.5622C4.02572 7.67155 3.80269 7.84829 3.32256 7.97468C2.84242 8.10108 2.17765 8.15296 1.52382 8.1466V8.14634C1.30232 8.14507 1.0864 8.21602 0.908647 8.34827C0.730889 8.48051 0.600929 8.66717 0.538625 8.87978C0.191494 10.0255 0 11.2372 0 12.5004C0 12.6527 0.0116981 12.7277 0.0111896 12.7181L0.0114439 12.7178C0.0134784 12.939 0.0869769 13.1534 0.221252 13.3289C0.355528 13.5046 0.543208 13.6318 0.756063 13.6918C1.38827 13.8645 2.01334 14.0944 2.44035 14.3449C2.86734 14.5954 3.03925 14.8314 3.07053 14.9521C3.10181 15.0729 3.05959 15.3593 2.80706 15.7886C2.55453 16.2176 2.13057 16.7267 1.66138 17.1863C1.5037 17.3391 1.39969 17.5388 1.3646 17.7554C1.3295 17.9721 1.36536 18.1944 1.46657 18.3892C2.08226 19.5399 2.87215 20.5813 3.80391 21.4826H3.80366C3.96159 21.6373 4.16529 21.7364 4.38425 21.7654C4.60321 21.7944 4.82573 21.7514 5.01824 21.6431C5.58866 21.3176 6.19492 21.0351 6.67968 20.9099C7.16414 20.7845 7.4548 20.8354 7.56189 20.8982C7.67049 20.962 7.86097 21.1958 7.98583 21.6774C8.1107 22.1591 8.15469 22.8206 8.14629 23.4762C8.14426 23.6964 8.21343 23.911 8.34338 24.0888C8.47359 24.2663 8.65745 24.397 8.86802 24.4614C10.0137 24.8085 11.2369 25 12.5001 25C12.6588 25 12.7109 24.988 12.672 24.9888H12.6717C12.893 24.9868 13.1074 24.913 13.2831 24.7787C13.4586 24.6445 13.586 24.4568 13.6457 24.2439C13.8204 23.612 14.0547 22.9892 14.3102 22.5597C14.5658 22.1301 14.8051 21.9615 14.929 21.9295C15.0513 21.8977 15.3483 21.9295 15.7768 22.1815C16.2053 22.4353 16.7032 22.8666 17.1633 23.3386L17.1631 23.3388C17.3169 23.4988 17.5186 23.6046 17.7378 23.6397C17.9568 23.6748 18.1816 23.6376 18.3776 23.5336C19.5338 22.9162 20.5797 22.1187 21.4825 21.1848C21.6351 21.0256 21.7322 20.8212 21.7589 20.6025C21.7859 20.3835 21.7411 20.1617 21.6315 19.9703C21.3037 19.4001 21.0247 18.7928 20.8983 18.3091C20.7719 17.8251 20.8233 17.5352 20.8871 17.4269C20.9527 17.3152 21.1811 17.1291 21.6664 17.0029C22.1513 16.8768 22.8179 16.8229 23.4765 16.831H23.476C23.6983 16.8356 23.9157 16.7674 24.0955 16.6372C24.2753 16.507 24.4078 16.3216 24.4729 16.1093C24.8162 14.968 24.9999 13.7536 24.9999 12.5001C24.9999 12.3455 24.9882 12.2819 24.9882 12.3053H24.9884C24.9864 12.0843 24.9126 11.8697 24.7784 11.6942C24.6441 11.5185 24.4564 11.3913 24.2436 11.3315C23.6129 11.1581 22.9863 10.9323 22.5593 10.6785C22.1323 10.4247 21.9616 10.1849 21.9291 10.0597C21.897 9.9359 21.9291 9.64014 22.1811 9.21191C22.4316 8.78365 22.8586 8.28445 23.3268 7.82566L23.327 7.82541C23.487 7.6718 23.5928 7.47014 23.6279 7.25093C23.663 7.03171 23.6259 6.80716 23.5219 6.61108C22.9064 5.46136 22.1165 4.41867 21.1845 3.51764C21.0253 3.36479 20.8211 3.26791 20.6021 3.24095C20.3832 3.21424 20.1614 3.259 19.9702 3.36861C19.3995 3.69463 18.7904 3.96522 18.3088 4.09034C17.8273 4.21547 17.5364 4.16638 17.4265 4.10153C17.3131 4.03465 17.1402 3.80501 17.014 3.32231C16.8879 2.83962 16.8342 2.18151 16.8421 1.52357V1.52383C16.8459 1.30029 16.7763 1.08183 16.6438 0.901531C16.5113 0.721481 16.3233 0.589999 16.109 0.526933C14.963 0.181072 13.7553 0 12.4998 0L12.5003 6.65576e-05ZM12.9815 2.07393C13.6147 2.10318 14.2286 2.18964 14.8262 2.32595C14.8532 2.83508 14.9028 3.34215 15.0325 3.8383C15.2326 4.60528 15.6077 5.40208 16.3958 5.86614C17.1844 6.33076 18.0595 6.27126 18.8247 6.07239C19.3128 5.94549 19.7494 5.69601 20.1995 5.47654C20.6354 5.95515 21.0258 6.46859 21.3681 7.02327C21.0354 7.39583 20.6708 7.74676 20.4172 8.18035C20.0187 8.86165 19.7294 9.68026 19.959 10.5635V10.5637V10.5749C20.1884 11.4563 20.8384 12.0277 21.5172 12.4311C21.9563 12.692 22.4466 12.8263 22.9263 12.9926C22.8968 13.6154 22.8083 14.225 22.6743 14.8142C22.1644 14.8409 21.6479 14.9025 21.1505 15.0319C20.3817 15.2318 19.5875 15.6044 19.1226 16.3952C18.658 17.1861 18.7272 18.0569 18.9278 18.8242C19.0553 19.3112 19.304 19.7494 19.5237 20.199C19.0433 20.6377 18.5214 21.024 17.9655 21.3675C17.596 21.0356 17.2499 20.6829 16.8198 20.4281C16.1393 20.025 15.3123 19.7168 14.4253 19.9469C13.5413 20.176 12.9627 20.8362 12.5576 21.5165C12.2972 21.9539 12.1629 22.4481 11.9963 22.9258C11.3491 22.8941 10.7181 22.7959 10.1058 22.6509C10.0788 22.1507 10.0831 21.6492 9.95675 21.1614C9.75839 20.3962 9.39269 19.5975 8.60481 19.1336C7.81518 18.6687 6.93146 18.7404 6.16448 18.9388C5.67443 19.0654 5.2421 19.3147 4.7897 19.5346C4.35203 19.0553 3.96419 18.5322 3.62116 17.9765C3.9543 17.6044 4.31698 17.2524 4.57199 16.8191C4.97278 16.1383 5.27159 15.3215 5.0417 14.436C4.81257 13.5526 4.15161 12.9785 3.47212 12.5798C3.03598 12.324 2.54922 12.193 2.07416 12.03C2.10468 11.3703 2.20106 10.7287 2.34907 10.1051C2.84803 10.0764 3.35231 10.084 3.83857 9.9561C4.60178 9.75545 5.39265 9.3778 5.85501 8.59278C6.31887 7.80516 6.26013 6.93902 6.06126 6.17529C5.93462 5.68829 5.68463 5.24959 5.46542 4.80051C5.94403 4.36513 6.4572 3.97448 7.01214 3.63197C7.38419 3.96537 7.73589 4.32779 8.16922 4.5828C8.85001 4.98359 9.66712 5.28136 10.5523 5.05251C11.4373 4.82389 12.0169 4.16398 12.42 3.48294C12.6807 3.04222 12.8155 2.55469 12.9813 2.07377L12.9815 2.07393ZM12.5003 7.13799C9.55081 7.13799 7.13821 9.55065 7.13821 12.5001C7.13821 15.4496 9.55062 17.8622 12.5003 17.8622C15.4498 17.8622 17.8624 15.4495 17.8624 12.5001C17.8624 9.55059 15.4498 7.13799 12.5003 7.13799ZM12.5003 9.17755C14.3463 9.17755 15.8229 10.6541 15.8229 12.5001C15.8229 14.3461 14.3463 15.8226 12.5003 15.8226C10.6543 15.8226 9.17777 14.3461 9.17777 12.5001C9.17777 10.6541 10.6543 9.17755 12.5003 9.17755Z"/>
</mask>
<path d="M12.5003 6.65576e-05C12.347 6.65576e-05 12.2778 0.0117648 12.2941 0.0117648H12.2938C12.0728 0.0137993 11.8584 0.0872978 11.6827 0.221573C11.5072 0.355849 11.3798 0.543528 11.3201 0.756384C11.1469 1.38885 10.9208 2.01164 10.667 2.44067C10.4132 2.86943 10.1719 3.05025 10.0483 3.0823C9.92595 3.11408 9.62943 3.07111 9.20044 2.81883C8.77167 2.56655 8.27324 2.14234 7.81419 1.67314V1.67289C7.66033 1.51293 7.45867 1.40739 7.23946 1.37229C7.02049 1.33694 6.79568 1.37433 6.59961 1.47834C5.45269 2.09326 4.40667 2.88392 3.50617 3.81568V3.81542C3.35358 3.97462 3.25644 4.17908 3.22973 4.39805C3.20277 4.61675 3.24753 4.83851 3.35714 5.03C3.68265 5.59915 3.954 6.19984 4.07887 6.67998C4.20399 7.16012 4.15364 7.45458 4.09006 7.5622C4.02572 7.67155 3.80269 7.84829 3.32256 7.97468C2.84242 8.10108 2.17765 8.15296 1.52382 8.1466V8.14634C1.30232 8.14507 1.0864 8.21602 0.908647 8.34827C0.730889 8.48051 0.600929 8.66717 0.538625 8.87978C0.191494 10.0255 0 11.2372 0 12.5004C0 12.6527 0.0116981 12.7277 0.0111896 12.7181L0.0114439 12.7178C0.0134784 12.939 0.0869769 13.1534 0.221252 13.3289C0.355528 13.5046 0.543208 13.6318 0.756063 13.6918C1.38827 13.8645 2.01334 14.0944 2.44035 14.3449C2.86734 14.5954 3.03925 14.8314 3.07053 14.9521C3.10181 15.0729 3.05959 15.3593 2.80706 15.7886C2.55453 16.2176 2.13057 16.7267 1.66138 17.1863C1.5037 17.3391 1.39969 17.5388 1.3646 17.7554C1.3295 17.9721 1.36536 18.1944 1.46657 18.3892C2.08226 19.5399 2.87215 20.5813 3.80391 21.4826H3.80366C3.96159 21.6373 4.16529 21.7364 4.38425 21.7654C4.60321 21.7944 4.82573 21.7514 5.01824 21.6431C5.58866 21.3176 6.19492 21.0351 6.67968 20.9099C7.16414 20.7845 7.4548 20.8354 7.56189 20.8982C7.67049 20.962 7.86097 21.1958 7.98583 21.6774C8.1107 22.1591 8.15469 22.8206 8.14629 23.4762C8.14426 23.6964 8.21343 23.911 8.34338 24.0888C8.47359 24.2663 8.65745 24.397 8.86802 24.4614C10.0137 24.8085 11.2369 25 12.5001 25C12.6588 25 12.7109 24.988 12.672 24.9888H12.6717C12.893 24.9868 13.1074 24.913 13.2831 24.7787C13.4586 24.6445 13.586 24.4568 13.6457 24.2439C13.8204 23.612 14.0547 22.9892 14.3102 22.5597C14.5658 22.1301 14.8051 21.9615 14.929 21.9295C15.0513 21.8977 15.3483 21.9295 15.7768 22.1815C16.2053 22.4353 16.7032 22.8666 17.1633 23.3386L17.1631 23.3388C17.3169 23.4988 17.5186 23.6046 17.7378 23.6397C17.9568 23.6748 18.1816 23.6376 18.3776 23.5336C19.5338 22.9162 20.5797 22.1187 21.4825 21.1848C21.6351 21.0256 21.7322 20.8212 21.7589 20.6025C21.7859 20.3835 21.7411 20.1617 21.6315 19.9703C21.3037 19.4001 21.0247 18.7928 20.8983 18.3091C20.7719 17.8251 20.8233 17.5352 20.8871 17.4269C20.9527 17.3152 21.1811 17.1291 21.6664 17.0029C22.1513 16.8768 22.8179 16.8229 23.4765 16.831H23.476C23.6983 16.8356 23.9157 16.7674 24.0955 16.6372C24.2753 16.507 24.4078 16.3216 24.4729 16.1093C24.8162 14.968 24.9999 13.7536 24.9999 12.5001C24.9999 12.3455 24.9882 12.2819 24.9882 12.3053H24.9884C24.9864 12.0843 24.9126 11.8697 24.7784 11.6942C24.6441 11.5185 24.4564 11.3913 24.2436 11.3315C23.6129 11.1581 22.9863 10.9323 22.5593 10.6785C22.1323 10.4247 21.9616 10.1849 21.9291 10.0597C21.897 9.9359 21.9291 9.64014 22.1811 9.21191C22.4316 8.78365 22.8586 8.28445 23.3268 7.82566L23.327 7.82541C23.487 7.6718 23.5928 7.47014 23.6279 7.25093C23.663 7.03171 23.6259 6.80716 23.5219 6.61108C22.9064 5.46136 22.1165 4.41867 21.1845 3.51764C21.0253 3.36479 20.8211 3.26791 20.6021 3.24095C20.3832 3.21424 20.1614 3.259 19.9702 3.36861C19.3995 3.69463 18.7904 3.96522 18.3088 4.09034C17.8273 4.21547 17.5364 4.16638 17.4265 4.10153C17.3131 4.03465 17.1402 3.80501 17.014 3.32231C16.8879 2.83962 16.8342 2.18151 16.8421 1.52357V1.52383C16.8459 1.30029 16.7763 1.08183 16.6438 0.901531C16.5113 0.721481 16.3233 0.589999 16.109 0.526933C14.963 0.181072 13.7553 0 12.4998 0L12.5003 6.65576e-05ZM12.9815 2.07393C13.6147 2.10318 14.2286 2.18964 14.8262 2.32595C14.8532 2.83508 14.9028 3.34215 15.0325 3.8383C15.2326 4.60528 15.6077 5.40208 16.3958 5.86614C17.1844 6.33076 18.0595 6.27126 18.8247 6.07239C19.3128 5.94549 19.7494 5.69601 20.1995 5.47654C20.6354 5.95515 21.0258 6.46859 21.3681 7.02327C21.0354 7.39583 20.6708 7.74676 20.4172 8.18035C20.0187 8.86165 19.7294 9.68026 19.959 10.5635V10.5637V10.5749C20.1884 11.4563 20.8384 12.0277 21.5172 12.4311C21.9563 12.692 22.4466 12.8263 22.9263 12.9926C22.8968 13.6154 22.8083 14.225 22.6743 14.8142C22.1644 14.8409 21.6479 14.9025 21.1505 15.0319C20.3817 15.2318 19.5875 15.6044 19.1226 16.3952C18.658 17.1861 18.7272 18.0569 18.9278 18.8242C19.0553 19.3112 19.304 19.7494 19.5237 20.199C19.0433 20.6377 18.5214 21.024 17.9655 21.3675C17.596 21.0356 17.2499 20.6829 16.8198 20.4281C16.1393 20.025 15.3123 19.7168 14.4253 19.9469C13.5413 20.176 12.9627 20.8362 12.5576 21.5165C12.2972 21.9539 12.1629 22.4481 11.9963 22.9258C11.3491 22.8941 10.7181 22.7959 10.1058 22.6509C10.0788 22.1507 10.0831 21.6492 9.95675 21.1614C9.75839 20.3962 9.39269 19.5975 8.60481 19.1336C7.81518 18.6687 6.93146 18.7404 6.16448 18.9388C5.67443 19.0654 5.2421 19.3147 4.7897 19.5346C4.35203 19.0553 3.96419 18.5322 3.62116 17.9765C3.9543 17.6044 4.31698 17.2524 4.57199 16.8191C4.97278 16.1383 5.27159 15.3215 5.0417 14.436C4.81257 13.5526 4.15161 12.9785 3.47212 12.5798C3.03598 12.324 2.54922 12.193 2.07416 12.03C2.10468 11.3703 2.20106 10.7287 2.34907 10.1051C2.84803 10.0764 3.35231 10.084 3.83857 9.9561C4.60178 9.75545 5.39265 9.3778 5.85501 8.59278C6.31887 7.80516 6.26013 6.93902 6.06126 6.17529C5.93462 5.68829 5.68463 5.24959 5.46542 4.80051C5.94403 4.36513 6.4572 3.97448 7.01214 3.63197C7.38419 3.96537 7.73589 4.32779 8.16922 4.5828C8.85001 4.98359 9.66712 5.28136 10.5523 5.05251C11.4373 4.82389 12.0169 4.16398 12.42 3.48294C12.6807 3.04222 12.8155 2.55469 12.9813 2.07377L12.9815 2.07393ZM12.5003 7.13799C9.55081 7.13799 7.13821 9.55065 7.13821 12.5001C7.13821 15.4496 9.55062 17.8622 12.5003 17.8622C15.4498 17.8622 17.8624 15.4495 17.8624 12.5001C17.8624 9.55059 15.4498 7.13799 12.5003 7.13799ZM12.5003 9.17755C14.3463 9.17755 15.8229 10.6541 15.8229 12.5001C15.8229 14.3461 14.3463 15.8226 12.5003 15.8226C10.6543 15.8226 9.17777 14.3461 9.17777 12.5001C9.17777 10.6541 10.6543 9.17755 12.5003 9.17755Z" fill="white" stroke="black" stroke-width="0.7" mask="url(#path-1-inside-1_191_1683)"/>
</svg>
