<svg width="17" height="25" viewBox="0 0 17 25" fill="none" xmlns="http://www.w3.org/2000/svg">
<path d="M7.77153 0.803136L7.78447 0.782983L7.78503 0.781909C8.03618 0.401332 8.66496 0.406056 8.90673 0.796283L8.90668 0.796311L8.91058 0.802402L16.0637 11.9836L16.0636 11.9837L16.0699 11.9931C16.3109 12.3518 16.0585 12.9242 15.4944 12.9242H11.5601H11.0601L11.0601 13.4242L11.0599 24.1055C11.0599 24.3085 10.8925 24.5 10.6246 24.5H6.0301C5.76218 24.5 5.59475 24.3085 5.59475 24.1055V13.4242V12.9242H5.09475H1.16065C0.624602 12.9242 0.345476 12.3911 0.594147 11.9794L7.77153 0.803136Z" fill="white" stroke="black"/>
</svg>
