<svg width="51" height="51" viewBox="0 0 51 51" fill="none" xmlns="http://www.w3.org/2000/svg">
<path d="M49.5573 45.6174L36.3615 32.4215C37.3765 31.1078 38.1529 29.6746 38.8097 28.1819C39.8247 25.7336 40.362 23.1063 40.362 20.36C40.362 17.6731 39.8247 15.0458 38.8097 12.5976C37.7946 10.2094 36.3615 8.05972 34.5106 6.2084C32.6597 4.3575 30.51 2.92425 28.1214 1.90928C25.6732 0.89427 23.0458 0.356934 20.359 0.356934C17.6721 0.356934 15.0448 0.894227 12.5966 1.90928C10.2084 2.9243 8.05875 4.3575 6.20742 6.2084C4.35652 8.0593 2.92327 10.209 1.90831 12.5976C0.893292 15.0458 0.355957 17.6731 0.355957 20.36C0.355957 23.0468 0.893249 25.6741 1.90831 28.1819C2.92332 30.57 4.35652 32.7197 6.20742 34.571C8.05832 36.4219 10.208 37.8552 12.5966 38.8701C15.0448 39.8852 17.6721 40.4225 20.359 40.4225C23.0458 40.4225 25.6732 39.8852 28.1214 38.8701C29.6737 38.2133 31.0473 37.3774 32.361 36.4219L45.5569 49.6178C46.0942 50.1551 46.811 50.4537 47.5273 50.4537C48.2436 50.4537 48.9605 50.1551 49.4977 49.6178C50.6319 48.4832 50.6319 46.6922 49.5573 45.6172L49.5573 45.6174ZM32.2415 32.2423C31.6442 32.8396 30.9873 33.3769 30.3305 33.8546C27.4646 36.0042 24.0014 37.1388 20.359 37.1388C15.8807 37.1388 11.7012 35.4074 8.53643 32.2423C5.3718 29.0777 3.64 24.8981 3.64 20.4198C3.64 15.9414 5.37137 11.762 8.53643 8.59722C11.7011 5.43259 15.8806 3.70079 20.359 3.70079C24.8373 3.70079 29.0168 5.43217 32.1815 8.59722C35.3462 11.7618 37.078 15.9414 37.078 20.4198C37.078 24.0621 35.9434 27.5254 33.7938 30.3913C33.3761 30.9886 32.8388 31.6455 32.2415 32.2422V32.2423Z" fill="#6B5ECD"/>
<path d="M20.4189 4.77588C11.8206 4.77588 4.7749 11.7619 4.7749 20.4199C4.7749 29.0182 11.761 36.0639 20.4189 36.0639C24.1208 36.0639 27.584 34.7502 30.2708 32.6007C31.1067 31.9439 31.8831 31.1675 32.5995 30.272C34.8087 27.5852 36.0627 24.1815 36.0627 20.4201C36.0031 11.7623 29.0171 4.77609 20.4187 4.77609L20.4189 4.77588ZM23.3448 9.43325C23.1061 9.49281 22.8671 9.61235 22.6284 9.67191C22.3897 9.73147 22.1507 9.85101 21.9716 9.97054C21.912 9.97054 21.852 10.0301 21.7925 10.0301L21.6134 10.0897C21.4938 10.1492 21.3747 10.2092 21.3147 10.2092C20.4788 10.5674 19.6429 10.9856 18.8665 11.4633C17.3142 12.3588 15.9406 13.4337 14.6869 14.6874C13.4328 15.9416 12.4179 17.3148 11.4628 18.867C10.9851 19.6434 10.5673 20.4793 10.2087 21.3152C10.1491 21.4348 10.0892 21.5539 10.0892 21.6139L10.0292 21.793C10.0292 21.8525 9.96962 21.9125 9.96962 21.9721C9.91006 22.2107 9.79052 22.3902 9.67099 22.6289C9.61143 22.8676 9.49189 23.1066 9.43233 23.3453C9.37277 23.584 9.25323 23.823 9.13369 24.0617C9.07413 23.823 8.9546 23.584 8.89503 23.3453C8.83547 23.1066 8.7755 22.8676 8.71594 22.5689C8.71594 22.4494 8.65638 22.3303 8.65638 22.2107C8.65638 22.0912 8.65638 21.9721 8.59682 21.7926V21.3744V20.9562C8.59682 19.8817 8.71636 18.8662 9.01499 17.7916C9.61226 15.7616 10.7464 13.791 12.2991 12.2983C13.8515 10.7459 15.7623 9.61145 17.7925 9.01414C18.8075 8.7155 19.8825 8.59597 20.9571 8.59597H21.3752H21.7934C21.913 8.59597 22.0321 8.59597 22.2116 8.65553C22.3311 8.65553 22.4503 8.65553 22.5698 8.71509C22.8084 8.77465 23.1071 8.83462 23.3461 8.89418C23.5848 8.95374 23.8239 9.01372 24.0625 9.13284C23.8226 9.25404 23.5836 9.3136 23.3449 9.43314L23.3448 9.43325Z" fill="#6B5ECD"/>
</svg>
