<svg width="51" height="51" viewBox="0 0 51 51" fill="none" xmlns="http://www.w3.org/2000/svg">
<path d="M50.6226 46.5955L41.1555 37.2699C44.7149 32.7218 46.4046 26.9858 45.8793 21.234C45.3545 15.4819 42.654 10.1474 38.3299 6.31807C34.0056 2.48918 28.3832 0.454471 22.6098 0.630124C16.837 0.805218 11.3482 3.17685 7.26388 7.26096C3.17977 11.3451 0.808089 16.8338 0.633044 22.6069C0.457476 28.3802 2.49222 34.0027 6.32099 38.327C10.1499 42.6512 15.4843 45.3516 21.2369 45.8764C26.9885 46.4017 32.7243 44.712 37.2728 41.1526L46.7399 50.6196L50.6226 46.5955ZM23.2421 40.2465L23.2416 40.2461C18.7343 40.2423 14.4128 38.4491 11.227 35.2604C8.04072 32.0721 6.25079 27.7493 6.2503 23.2419C6.24983 18.7345 8.03878 14.4107 11.2236 11.2215C14.4123 8.03707 18.7351 6.24823 23.2416 6.24823C27.7486 6.24823 32.0709 8.0372 35.2596 11.2215C38.4446 14.4103 40.2334 18.7331 40.2334 23.2395C40.2334 27.7465 38.4445 32.0688 35.2596 35.2576C32.0861 38.4667 27.7553 40.2642 23.2416 40.2461L23.2421 40.2465Z" fill="#6B5ECD"/>
</svg>
