<svg width="54" height="55" viewBox="0 0 54 55" fill="none" xmlns="http://www.w3.org/2000/svg">
<path d="M15.9024 16.2335C15.9024 24.4767 22.6072 31.1824 30.8513 31.1824C39.0953 31.1824 45.8001 24.4776 45.8001 16.2335C45.8001 7.98961 39.0946 1.2831 30.8513 1.28389L15.9024 16.2335ZM15.9024 16.2335C15.9024 7.98955 22.608 1.28393 30.8512 1.28389L15.9024 16.2335ZM30.8513 4.9491C24.63 4.9491 19.5683 10.0114 19.5683 16.2327C19.5683 22.454 24.6298 27.5157 30.8513 27.5157C37.0728 27.5157 42.1343 22.4542 42.1343 16.2335C42.1343 10.0121 37.0726 4.9491 30.8513 4.9491Z" fill="#6B5ECD" stroke="#6B5ECD" stroke-width="1.4"/>
<path d="M52.7 52.979V53.6791H52H9.70023H9.00023V52.979V51.8457C9.00023 39.797 18.8016 29.9948 30.8511 29.9948C42.8991 29.9948 52.7 39.7962 52.7 51.8457V52.979ZM12.7567 50.0123H48.9431C48.0213 40.8433 40.2593 33.6617 30.8511 33.6617C21.4429 33.6617 13.6788 40.8434 12.7567 50.0123Z" fill="#6B5ECD" stroke="#6B5ECD" stroke-width="1.4"/>
<path d="M17.0239 31.2044H12.138V36.3615V37.0615H11.438H7.58594H6.88594V36.3615V31.2044H1.99999H1.29999V30.5044V26.7536V26.0536H1.99999H6.88594V20.9414V20.2414H7.58594H11.438H12.138V20.9414V26.0536H17.0239H17.7239V26.7536V30.5044V31.2044H17.0239Z" fill="#6B5ECD" stroke="#6B5ECD" stroke-width="1.4"/>
</svg>
