<svg width="51" height="51" viewBox="0 0 51 51" fill="none" xmlns="http://www.w3.org/2000/svg">
<path d="M39.7677 36.7761L32.7178 29.7263C34.1378 27.7363 34.9778 25.2964 34.9578 22.6463C34.9378 15.9965 29.5079 10.567 22.8583 10.5569C16.1484 10.5369 10.6985 15.9669 10.6885 22.6765C10.6785 29.1464 16.0684 34.6864 22.5384 34.8363C25.1483 34.8963 27.5783 34.1263 29.5782 32.7863L36.7081 39.9162C37.5781 40.7862 38.9881 40.7762 39.8481 39.8762C40.658 38.9962 40.618 37.6162 39.7681 36.7763L39.7677 36.7761ZM14.4378 22.6662C14.4378 18.0362 18.1878 14.2763 22.8277 14.2763C27.4577 14.2763 31.2176 18.0263 31.2176 22.6662C31.2176 27.3061 27.4676 31.0561 22.8277 31.0561C18.1978 31.0561 14.4378 27.2961 14.4378 22.6662V22.6662Z" fill="#6B5ECD"/>
<path d="M25.5581 50.5559C18.8783 50.5559 12.5983 47.9559 7.87794 43.2361C3.15756 38.5162 0.558105 32.2365 0.558105 25.5559C0.558105 18.8753 3.15811 12.5961 7.87794 7.87574C12.5978 3.15536 18.8775 0.555908 25.5581 0.555908C32.2387 0.555908 38.5179 3.15591 43.2383 7.87574C47.9586 12.5956 50.5581 18.8753 50.5581 25.5559C50.5581 32.2365 47.9581 38.5157 43.2383 43.2361C38.5184 47.9565 32.2387 50.5559 25.5581 50.5559ZM25.5581 2.15625C12.6587 2.15625 2.15826 12.6557 2.15826 25.5561C2.15826 38.4565 12.6577 48.9559 25.5581 48.9559C38.4585 48.9559 48.9579 38.4565 48.9579 25.5561C48.9579 12.6557 38.4585 2.15625 25.5581 2.15625V2.15625Z" fill="#6B5ECD"/>
</svg>
