<svg width="19" height="15" viewBox="0 0 19 15" fill="none" xmlns="http://www.w3.org/2000/svg">
<path d="M16.4336 7.66108C16.4336 7.33637 16.6965 7.07281 17.0219 7.07281C17.3466 7.07281 17.6095 7.33625 17.6095 7.66108C17.6095 9.67976 16.784 11.5146 15.4543 12.8448C14.1242 14.1745 12.2898 15 10.2706 15H7.33892C5.32024 15 3.48544 14.1745 2.15519 12.8448C0.825538 11.5152 0 9.68029 0 7.66108C0 5.64239 0.825538 3.80759 2.15519 2.47734C3.48485 1.14769 5.31971 0.322151 7.33892 0.322151H10.2706C10.5953 0.322151 10.8588 0.585592 10.8588 0.910419C10.8588 1.23512 10.5959 1.49869 10.2706 1.49869H7.33892C5.64494 1.49869 4.10418 2.19226 2.98676 3.30961C1.86941 4.42696 1.17584 5.96786 1.17584 7.66177C1.17584 9.35625 1.86941 10.8965 2.98676 12.0139C4.10412 13.1313 5.64501 13.8249 7.33892 13.8249H10.2706C11.9651 13.8249 13.5053 13.1313 14.6227 12.0139C15.7402 10.8966 16.4336 9.35499 16.4336 7.66108ZM11.2688 4.3003C10.9441 4.3003 10.6811 4.03738 10.6811 3.71267C10.6811 3.38796 10.9441 3.1244 11.2688 3.1244H13.8055V0.587638C13.8055 0.262933 14.0685 0 14.3938 0C14.7185 0 14.9814 0.262923 14.9814 0.587638V3.1244H17.5182C17.8429 3.1244 18.1065 3.38732 18.1065 3.71267C18.1065 4.03737 17.8435 4.3003 17.5182 4.3003H14.9814V6.83756C14.9814 7.16227 14.7185 7.4252 14.3938 7.4252C14.0691 7.4252 13.8055 7.16228 13.8055 6.83756V4.3003H11.2688Z" fill="#96959C"/>
</svg>
