<svg width="31" height="30" viewBox="0 0 31 30" fill="none" xmlns="http://www.w3.org/2000/svg">
<path d="M21.3393 19.5776L21.5616 19.7771L21.3606 19.9782L29.4122 28.0298L29.4123 28.0298C29.7963 28.4137 29.7987 29.0301 29.4146 29.4143C29.0333 29.7956 28.4138 29.7957 28.03 29.4119L19.9784 21.3603L19.7875 21.1694L19.5775 21.3393C17.5446 22.9851 14.9557 23.9709 12.1357 23.9709C5.59875 23.9709 0.3 18.672 0.3 12.1357C0.3 5.59875 5.59886 0.3 12.1357 0.3C18.6721 0.3 23.9709 5.59885 23.9709 12.1357C23.9709 14.9554 22.9851 17.5443 21.3393 19.5776ZM12.1355 22.0164C17.5923 22.0164 22.0162 17.5926 22.0162 12.1357C22.0162 6.67864 17.5923 2.25503 12.1355 2.25503C6.67843 2.25503 2.25481 6.67864 2.25481 12.1357C2.25481 17.5926 6.67842 22.0164 12.1355 22.0164Z" fill="black" stroke="black" stroke-width="0.6"/>
</svg>
