<svg width="51" height="46" viewBox="0 0 51 46" fill="none" xmlns="http://www.w3.org/2000/svg">
<path fill-rule="evenodd" clip-rule="evenodd" d="M47.8417 13.2417H44.8588V16.2246C44.8588 17.4372 43.8755 18.4205 42.6629 18.4205H41.8449C40.6323 18.4205 39.649 17.4372 39.649 16.2246V13.2417H36.6661C35.4535 13.2417 34.4702 12.2585 34.4702 11.0458V10.2288C34.4702 9.01617 35.4535 8.03291 36.6661 8.03291H39.649V5.05005C39.649 3.83739 40.6323 2.85413 41.8449 2.85413H42.6629C43.8755 2.85413 44.8588 3.83739 44.8588 5.05005V8.03291H47.8417C49.0543 8.03291 50.0376 9.01617 50.0376 10.2288V11.0458C50.0376 12.258 49.0543 13.2417 47.8417 13.2417ZM41.276 34.8598C41.3321 35.1088 41.3686 35.3662 41.3686 35.6332V41.665C41.3686 43.5684 39.8594 45.1116 37.9986 45.1116H3.40758C1.54621 45.1116 0.0375977 43.5684 0.0375977 41.665V35.6332C0.0375977 35.3803 0.0676523 35.1358 0.118743 34.8979C0.637172 27.426 6.37542 21.1671 13.3853 18.6885C11.0341 16.795 9.5269 13.8969 9.5269 10.6431C9.5269 4.93796 14.1511 0.312744 19.8564 0.312744C25.5621 0.312744 30.1864 4.93899 30.1864 10.6436C30.1864 13.8719 28.7042 16.7526 26.3841 18.6464C33.8816 21.0898 40.6714 27.3615 41.2767 34.8597L41.276 34.8598ZM5.23079 35.4544C5.22227 35.5055 5.20073 35.5521 5.20073 35.6052V38.9507C5.20073 39.4856 5.63451 39.9194 6.16947 39.9194H8.64685V35.2496C8.64685 34.0639 9.60757 33.1033 10.7931 33.1033H11.6547C12.8403 33.1033 13.801 34.064 13.801 35.2496V39.9194H27.6036V35.2496C27.6036 34.0639 28.5643 33.1033 29.7499 33.1033H30.6114C31.797 33.1033 32.7577 34.064 32.7577 35.2496V39.9194H35.2316C35.7666 39.9194 36.2004 39.4856 36.2004 38.9507V35.6052C36.2004 35.5576 36.1793 35.517 36.1733 35.4709C35.8773 28.3892 27.3941 22.7197 20.0498 22.7197C12.7116 22.7197 5.51631 28.3804 5.23036 35.4544L5.23079 35.4544ZM19.8566 5.4424C16.9845 5.4424 14.6554 7.77104 14.6554 10.6436C14.6554 13.5157 16.984 15.8449 19.8566 15.8449C22.7287 15.8449 25.0578 13.5162 25.0578 10.6436C25.0568 7.77104 22.7287 5.4424 19.8566 5.4424Z" fill="#6B5ECD"/>
</svg>
