<svg width="175" height="54" viewBox="0 0 175 54" fill="none" xmlns="http://www.w3.org/2000/svg">
<path d="M1.09735 14.4961C0.207624 14.8425 -0.229532 15.8359 0.120945 16.715L9.01179 39.0173C9.0592 39.5663 9.37358 40.0826 9.89788 40.3698C10.7342 40.8278 11.7881 40.5293 12.2517 39.7028L18.3475 28.8365L24.145 39.1711C24.2199 39.7736 24.6177 40.3177 25.2295 40.5558C25.8395 40.7933 26.5039 40.6649 26.9743 40.2773C27.3893 39.9841 27.6399 39.5336 27.6883 39.056L36.5039 16.9426C36.8544 16.0634 36.4172 15.07 35.5275 14.7237C34.6378 14.3774 33.6324 14.8094 33.2819 15.6885L25.6586 34.8113L19.9026 24.5507C19.7521 24.2476 19.5096 23.9853 19.188 23.8092C18.3517 23.3511 17.2978 23.6497 16.8342 24.4761L11.0484 34.7899L3.3429 15.4609C2.99244 14.5818 1.98707 14.1499 1.09735 14.4961Z" fill="black"/>
<path fill-rule="evenodd" clip-rule="evenodd" d="M54.8274 37.1215C57.4448 37.1215 59.8203 36.0983 61.5667 34.4346C61.9231 34.0951 62.3267 33.7861 62.8087 33.6864C64.0533 33.4291 64.7554 33.8977 65.1159 34.4902C65.4629 35.0604 65.2163 35.7709 64.7695 36.2667C62.3321 38.9717 58.7811 40.6754 54.8274 40.6754C47.4778 40.6754 41.5198 34.7882 41.5198 27.526C41.5198 20.2638 47.4778 14.3766 54.8274 14.3766C62.177 14.3766 68.135 20.2638 68.135 27.526C68.1258 27.7429 68.1076 28.1333 68.0846 28.5018C68.0544 28.9846 67.852 29.4656 67.3826 29.5826C67.1137 29.6496 66.8762 29.6583 66.8762 29.6583H45.4761C45.4358 29.6583 45.3958 29.657 45.3562 29.6544C46.336 33.9296 50.2045 37.1215 54.8274 37.1215ZM45.2196 26.1224C45.907 21.4883 49.9467 17.9305 54.8274 17.9305C59.7018 17.9305 63.7374 21.4791 64.4325 26.1044H45.4761C45.389 26.1044 45.3034 26.1106 45.2196 26.1224Z" fill="black"/>
<path fill-rule="evenodd" clip-rule="evenodd" d="M76.297 13.6753C75.317 13.6753 74.5226 14.4602 74.5226 15.4285V52.2467C74.5226 53.215 75.317 54 76.297 54C77.2769 54 78.0713 53.215 78.0713 52.2467V35.4814C80.479 38.2329 84.0376 39.974 88.0077 39.974C95.2593 39.974 101.138 34.1653 101.138 27C101.138 19.8346 95.2593 14.0259 88.0077 14.0259C84.0376 14.0259 80.479 15.767 78.0713 18.5186V15.4285C78.0713 14.4602 77.2769 13.6753 76.297 13.6753ZM97.5892 27C97.5892 32.2287 93.2994 36.4675 88.0077 36.4675C82.716 36.4675 78.4262 32.2287 78.4262 27C78.4262 21.7712 82.716 17.5324 88.0077 17.5324C93.2994 17.5324 97.5892 21.7712 97.5892 27Z" fill="black"/>
<path d="M147.981 1.75325C147.981 0.784959 148.775 0 149.755 0C150.735 0 151.529 0.784959 151.529 1.75325V34.3752L171.971 14.1767C172.664 13.492 173.787 13.492 174.48 14.1767C175.173 14.8614 175.173 15.9715 174.48 16.6561L163.845 27.1649L174.366 37.5602C175.059 38.2449 175.059 39.355 174.366 40.0397C173.673 40.7244 172.549 40.7244 171.856 40.0397L161.336 29.6443L151.897 38.9713C151.734 39.1315 151.549 39.2542 151.351 39.3395C151.062 39.9228 150.456 40.3247 149.755 40.3247C148.775 40.3247 147.981 39.5397 147.981 38.5714V1.75325Z" fill="black"/>
<path d="M139.387 33.3753C138.778 33.3891 138.272 33.7943 137.847 34.2315C136.063 36.0703 133.551 37.215 130.77 37.215C125.354 37.215 120.964 32.8771 120.964 27.526C120.964 22.1749 125.354 17.837 130.77 17.837C133.751 17.837 136.421 19.1517 138.22 21.2263C138.397 21.4312 138.617 21.6021 138.881 21.6652C139.679 21.8563 140.678 21.794 141.162 20.8503C141.521 20.1492 141.195 19.3154 140.664 18.733C138.228 16.0584 134.698 14.3766 130.77 14.3766C123.42 14.3766 117.462 20.2638 117.462 27.526C117.462 34.7882 123.42 40.6754 130.77 40.6754C134.77 40.6754 138.358 38.9314 140.797 36.1709C141.228 35.6836 141.458 35.0014 141.168 34.4195C140.878 33.8391 140.334 33.354 139.387 33.3753Z" fill="black"/>
<rect x="107.525" y="14.3766" width="3.5487" height="26.2987" rx="1.77435" fill="black"/>
<ellipse cx="109.3" cy="5.61043" rx="2.48409" ry="2.45455" fill="black"/>
</svg>
